<mxfile host="65bd71144e">
    <diagram name="AWS Identity" id="FuwrOLNAKktOfjVYcHgK">
        <mxGraphModel dx="1244" dy="744" grid="1" gridSize="10" guides="1" tooltips="1" connect="1" arrows="1" fold="1" page="1" pageScale="1" pageWidth="850" pageHeight="1100" math="0" shadow="0">
            <root>
                <mxCell id="0"/>
                <mxCell id="1" parent="0"/>
                <mxCell id="z1hSR8ZAEEp581dmZGRj-1" value="AWS Cloud" style="points=[[0,0],[0.25,0],[0.5,0],[0.75,0],[1,0],[1,0.25],[1,0.5],[1,0.75],[1,1],[0.75,1],[0.5,1],[0.25,1],[0,1],[0,0.75],[0,0.5],[0,0.25]];outlineConnect=0;gradientColor=none;html=1;whiteSpace=wrap;fontSize=12;fontStyle=0;container=1;pointerEvents=0;collapsible=0;recursiveResize=0;shape=mxgraph.aws4.group;grIcon=mxgraph.aws4.group_aws_cloud;strokeColor=#232F3E;fillColor=none;verticalAlign=top;align=left;spacingLeft=30;fontColor=#232F3E;dashed=0;" parent="1" vertex="1">
                    <mxGeometry x="60" y="140" width="730" height="570" as="geometry"/>
                </mxCell>
                <mxCell id="z1hSR8ZAEEp581dmZGRj-2" value="AWS Account - SSO" style="points=[[0,0],[0.25,0],[0.5,0],[0.75,0],[1,0],[1,0.25],[1,0.5],[1,0.75],[1,1],[0.75,1],[0.5,1],[0.25,1],[0,1],[0,0.75],[0,0.5],[0,0.25]];outlineConnect=0;gradientColor=none;html=1;whiteSpace=wrap;fontSize=12;fontStyle=0;container=1;pointerEvents=0;collapsible=0;recursiveResize=0;shape=mxgraph.aws4.group;grIcon=mxgraph.aws4.group_account;strokeColor=#CD2264;fillColor=none;verticalAlign=top;align=left;spacingLeft=30;fontColor=#CD2264;dashed=0;" parent="z1hSR8ZAEEp581dmZGRj-1" vertex="1">
                    <mxGeometry x="50" y="60" width="590" height="220" as="geometry"/>
                </mxCell>
                <mxCell id="z1hSR8ZAEEp581dmZGRj-8" value="IAM Identity Center" style="sketch=0;points=[[0,0,0],[0.25,0,0],[0.5,0,0],[0.75,0,0],[1,0,0],[0,1,0],[0.25,1,0],[0.5,1,0],[0.75,1,0],[1,1,0],[0,0.25,0],[0,0.5,0],[0,0.75,0],[1,0.25,0],[1,0.5,0],[1,0.75,0]];outlineConnect=0;fontColor=#232F3E;gradientColor=#F54749;gradientDirection=north;fillColor=#C7131F;strokeColor=#ffffff;dashed=0;verticalLabelPosition=bottom;verticalAlign=top;align=center;html=1;fontSize=12;fontStyle=0;aspect=fixed;shape=mxgraph.aws4.resourceIcon;resIcon=mxgraph.aws4.single_sign_on;" parent="z1hSR8ZAEEp581dmZGRj-2" vertex="1">
                    <mxGeometry x="30" y="41" width="49" height="49" as="geometry"/>
                </mxCell>
                <mxCell id="Wi8k5kGcbuwrF1H-IDLo-1" value="SSO Identity" style="sketch=0;outlineConnect=0;fontColor=#232F3E;gradientColor=none;fillColor=#BF0816;strokeColor=none;dashed=0;verticalLabelPosition=bottom;verticalAlign=top;align=center;html=1;fontSize=12;fontStyle=0;aspect=fixed;pointerEvents=1;shape=mxgraph.aws4.organizations_account;" parent="z1hSR8ZAEEp581dmZGRj-2" vertex="1">
                    <mxGeometry x="271" y="69.46000000000001" width="57.95" height="61.08" as="geometry"/>
                </mxCell>
                <mxCell id="Wi8k5kGcbuwrF1H-IDLo-6" value="" style="rounded=1;arcSize=10;dashed=1;strokeColor=#ff0000;fillColor=none;gradientColor=none;dashPattern=8 4;strokeWidth=2;" parent="z1hSR8ZAEEp581dmZGRj-2" vertex="1">
                    <mxGeometry x="255" y="60" width="120" height="100" as="geometry"/>
                </mxCell>
                <mxCell id="7" value="SSO Permission Set" style="shape=image;verticalLabelPosition=bottom;verticalAlign=top;imageAspect=0;aspect=fixed;image=data:image/svg+xml,PD94bWwgdmVyc2lvbj0iMS4wIiBlbmNvZGluZz0iVVRGLTgiPz4KPHN2ZyB3aWR0aD0iNjRweCIgaGVpZ2h0PSI2NHB4IiB2aWV3Qm94PSIwIDAgNjQgNjQiIHZlcnNpb249IjEuMSIgeG1sbnM9Imh0dHA6Ly93d3cudzMub3JnLzIwMDAvc3ZnIiB4bWxuczp4bGluaz0iaHR0cDovL3d3dy53My5vcmcvMTk5OS94bGluayI+CiAgICA8dGl0bGU+SWNvbi1BcmNoaXRlY3R1cmUvNDgvQXJjaF9BbWF6b24tVmVyaWZpZWQtUGVybWlzc2lvbnNfNDg8L3RpdGxlPgogICAgPGcgaWQ9Ikljb24tQXJjaGl0ZWN0dXJlLzQ4L0FyY2hfQW1hem9uLVZlcmlmaWVkLVBlcm1pc3Npb25zXzQ4IiBzdHJva2U9Im5vbmUiIHN0cm9rZS13aWR0aD0iMSIgZmlsbD0ibm9uZSIgZmlsbC1ydWxlPSJldmVub2RkIj4KICAgICAgICA8ZyBpZD0iSWNvbi1BcmNoaXRlY3R1cmUtQkcvNDgvU2VjdXJpdHktSWRlbnRpdHktQ29tcGxpYW5jZSIgZmlsbD0iI0REMzQ0QyI+CiAgICAgICAgICAgIDxyZWN0IGlkPSJSZWN0YW5nbGUiIHg9IjAiIHk9IjAiIHdpZHRoPSI2NCIgaGVpZ2h0PSI2NCI+PC9yZWN0PgogICAgICAgIDwvZz4KICAgICAgICA8cGF0aCBkPSJNMzgsMzcgTDQ2LDM3IEw0NiwzOSBMMzgsMzkgTDM4LDQyIEw0Niw0MiBMNDYsNDQgTDM4LDQ0IEwzOCw0NyBMMzYsNDcgTDM2LDM0IEwzOCwzNCBMMzgsMzcgWiBNNTIsNDEuOTI2IEw1MC45ODIsNDEuODY4IEM1MC41MTMsNDEuODM3IDUwLjA1OCw0Mi4xNjggNDkuOTUsNDIuNjQ2IEM0OS43MDgsNDMuNzE5IDQ5LjI4OCw0NC43MzUgNDguNyw0NS42NjYgQzQ4LjQzOSw0Ni4wNzkgNDguNTE2LDQ2LjYyMSA0OC44OCw0Ni45NDYgTDQ5LjY0LDQ3LjYyNCBMNDcuNjI0LDQ5LjY0IEw0Ni45NDksNDguODg0IEM0Ni42MjMsNDguNTE3IDQ2LjA4MSw0OC40NDIgNDUuNjY5LDQ4LjcwNCBDNDQuNzM3LDQ5LjI5MiA0My43MjEsNDkuNzE0IDQyLjY0Niw0OS45NTcgQzQyLjE2OSw1MC4wNjQgNDEuODQsNTAuNTAxIDQxLjg2OCw1MC45ODkgTDQxLjkyNiw1MiBMMzkuMDc0LDUyIEwzOS4xMzIsNTAuOTg4IEMzOS4xNiw1MC41IDM4LjgzMSw1MC4wNjMgMzguMzU0LDQ5Ljk1NiBDMzcuMjgyLDQ5LjcxMyAzNi4yNjYsNDkuMjkyIDM1LjMzMyw0OC43MDIgQzM0LjkyLDQ4LjQ0MSAzNC4zNzgsNDguNTE1IDM0LjA1Myw0OC44ODIgTDMzLjM3Niw0OS42NCBMMzEuMzYsNDcuNjI0IEwzMi4xMTgsNDYuOTQ4IEMzMi40ODIsNDYuNjIzIDMyLjU1OSw0Ni4wODIgMzIuMjk4LDQ1LjY2OCBDMzEuNzEsNDQuNzM2IDMxLjI4OSw0My43MTkgMzEuMDQ4LDQyLjY0NiBDMzAuOTM5LDQyLjE2OSAzMC40NzYsNDEuODQ4IDMwLjAxNiw0MS44NjggTDI5LDQxLjkyNiBMMjksMzkuMDc0IEwzMC4wMiwzOS4xMzIgQzMwLjUsMzkuMTU0IDMwLjk0MiwzOC44MzIgMzEuMDUyLDM4LjM1NSBDMzEuMjk0LDM3LjI4NiAzMS43MTUsMzYuMjcxIDMyLjMwNSwzNS4zMzkgQzMyLjU2NSwzNC45MjUgMzIuNDg5LDM0LjM4NCAzMi4xMjUsMzQuMDU5IEwzMS4zNiwzMy4zNzYgTDMzLjM3NywzMS4zNiBMMzQuMDU4LDMyLjEyNCBDMzQuMzgyLDMyLjQ4OSAzNC45MjUsMzIuNTYzIDM1LjMzNywzMi4zMDQgQzM2LjI2NywzMS43MTcgMzcuMjgxLDMxLjI5NyAzOC4zNTQsMzEuMDU1IEMzOC44MzEsMzAuOTQ3IDM5LjE2LDMwLjUxMSAzOS4xMzIsMzAuMDIzIEwzOS4wNzQsMjkgTDQxLjkyNiwyOSBMNDEuODY4LDMwLjAyNCBDNDEuODQsMzAuNTEyIDQyLjE2OSwzMC45NDggNDIuNjQ2LDMxLjA1NiBDNDMuNzE1LDMxLjI5OCA0NC43MjksMzEuNzE5IDQ1LjY2MSwzMi4zMDYgQzQ2LjA3MSwzMi41NjUgNDYuNjE1LDMyLjQ5IDQ2Ljk0LDMyLjEyNiBMNDcuNjIzLDMxLjM2IEw0OS42NCwzMy4zNzYgTDQ4Ljg3NywzNC4wNTcgQzQ4LjUxMywzNC4zODIgNDguNDM3LDM0LjkyNCA0OC42OTgsMzUuMzM3IEM0OS4yODUsMzYuMjY2IDQ5LjcwNywzNy4yODEgNDkuOTQ5LDM4LjM1NCBDNTAuMDU3LDM4LjgzMiA1MC41MTMsMzkuMTU0IDUwLjk4MSwzOS4xMzIgTDUyLDM5LjA3NCBMNTIsNDEuOTI2IFogTTUzLjY4NywzNy4yODkgQzUzLjQ4NywzNy4xIDUzLjIxNSwzNyA1Mi45NDMsMzcuMDE3IEw1MS42ODIsMzcuMDg5IEM1MS40NjIsMzYuMzY3IDUxLjE3MywzNS42NzEgNTAuODE3LDM1LjAwNiBMNTEuNzYyLDM0LjE2NCBDNTEuOTY3LDMzLjk4MSA1Mi4wODgsMzMuNzIyIDUyLjA5NiwzMy40NDYgQzUyLjEwNCwzMy4xNzEgNTEuOTk3LDMyLjkwNSA1MS44MDMsMzIuNzExIEw0OC4yODksMjkuMTk4IEM0OC4wOTUsMjkuMDAzIDQ3LjgxOSwyOC44OTUgNDcuNTU0LDI4LjkwNSBDNDcuMjc4LDI4LjkxMyA0Ny4wMTksMjkuMDM0IDQ2LjgzNiwyOS4yMzkgTDQ1Ljk5MSwzMC4xODYgQzQ1LjMyNiwyOS44MzEgNDQuNjMsMjkuNTQzIDQzLjkxMSwyOS4zMjQgTDQzLjk4MiwyOC4wNTcgQzQzLjk5OCwyNy43ODIgNDMuOSwyNy41MTMgNDMuNzExLDI3LjMxMyBDNDMuNTIyLDI3LjExMyA0My4yNiwyNyA0Mi45ODQsMjcgTDM4LjAxNiwyNyBDMzcuNzQsMjcgMzcuNDc4LDI3LjExMyAzNy4yODksMjcuMzEzIEMzNy4xLDI3LjUxMyAzNy4wMDIsMjcuNzgyIDM3LjAxOCwyOC4wNTcgTDM3LjA4OSwyOS4zMjIgQzM2LjM2OCwyOS41NDIgMzUuNjcyLDI5LjgzIDM1LjAwNywzMC4xODQgTDM0LjE2NCwyOS4yMzkgQzMzLjk4MSwyOS4wMzQgMzMuNzIyLDI4LjkxMyAzMy40NDYsMjguOTA1IEMzMy4xNjksMjguODk3IDMyLjkwNiwyOS4wMDMgMzIuNzExLDI5LjE5OCBMMjkuMTk3LDMyLjcxMSBDMjkuMDAzLDMyLjkwNSAyOC44OTYsMzMuMTcxIDI4LjkwNCwzMy40NDYgQzI4LjkxMiwzMy43MjIgMjkuMDMzLDMzLjk4MSAyOS4yMzgsMzQuMTY0IEwzMC4xODUsMzUuMDA4IEMyOS44MjgsMzUuNjczIDI5LjUzOSwzNi4zNjkgMjkuMzE5LDM3LjA4OSBMMjguMDU3LDM3LjAxNyBDMjcuNzg0LDM3IDI3LjUxMywzNy4xIDI3LjMxMywzNy4yODkgQzI3LjExMywzNy40NzggMjcsMzcuNzQxIDI3LDM4LjAxNiBMMjcsNDIuOTg0IEMyNyw0My4yNTkgMjcuMTEzLDQzLjUyMiAyNy4zMTMsNDMuNzExIEMyNy41MTMsNDMuOSAyNy43ODUsNDMuOTk1IDI4LjA1Nyw0My45ODMgTDI5LjMxNCw0My45MTEgQzI5LjUzMyw0NC42MzMgMjkuODIyLDQ1LjMzMSAzMC4xNzgsNDUuOTk4IEwyOS4yMzgsNDYuODM2IEMyOS4wMzMsNDcuMDIgMjguOTEyLDQ3LjI3OSAyOC45MDQsNDcuNTU0IEMyOC44OTYsNDcuODI5IDI5LjAwMyw0OC4wOTUgMjkuMTk3LDQ4LjI5IEwzMi43MTEsNTEuODAzIEMzMi45MDYsNTEuOTk4IDMzLjE2Niw1Mi4xMSAzMy40NDYsNTIuMDk1IEMzMy43MjIsNTIuMDg3IDMzLjk4MSw1MS45NjcgMzQuMTY0LDUxLjc2MSBMMzUuMDAyLDUwLjgyMiBDMzUuNjY5LDUxLjE3OSAzNi4zNjcsNTEuNDY4IDM3LjA4OSw1MS42ODggTDM3LjAxOCw1Mi45NDMgQzM3LjAwMiw1My4yMTggMzcuMSw1My40ODcgMzcuMjg5LDUzLjY4NyBDMzcuNDc4LDUzLjg4NyAzNy43NCw1NCAzOC4wMTYsNTQgTDQyLjk4NCw1NCBDNDMuMjYsNTQgNDMuNTIyLDUzLjg4NyA0My43MTEsNTMuNjg3IEM0My45LDUzLjQ4NyA0My45OTgsNTMuMjE4IDQzLjk4Miw1Mi45NDMgTDQzLjkxMSw1MS42ODkgQzQ0LjYzNSw1MS40NyA0NS4zMzMsNTEuMTggNDYsNTAuODI0IEw0Ni44MzYsNTEuNzYxIEM0Ny4wMTksNTEuOTY3IDQ3LjI3OCw1Mi4wODcgNDcuNTU0LDUyLjA5NSBDNDcuODIyLDUyLjExMyA0OC4wOTUsNTEuOTk4IDQ4LjI4OSw1MS44MDMgTDUxLjgwMyw0OC4yOSBDNTEuOTk3LDQ4LjA5NSA1Mi4xMDQsNDcuODI5IDUyLjA5Niw0Ny41NTQgQzUyLjA4OCw0Ny4yNzkgNTEuOTY3LDQ3LjAyIDUxLjc2Miw0Ni44MzYgTDUwLjgyLDQ1Ljk5NyBDNTEuMTc2LDQ1LjMzMSA1MS40NjQsNDQuNjMzIDUxLjY4NCw0My45MTEgTDUyLjk0Myw0My45ODMgQzUzLjIxNCw0My45OTQgNTMuNDg3LDQzLjkgNTMuNjg3LDQzLjcxMSBDNTMuODg3LDQzLjUyMiA1NCw0My4yNTkgNTQsNDIuOTg0IEw1NCwzOC4wMTYgQzU0LDM3Ljc0MSA1My44ODcsMzcuNDc4IDUzLjY4NywzNy4yODkgTDUzLjY4NywzNy4yODkgWiBNMjUuMjU2LDI4LjcyNCBMMTkuMzY1LDM0LjYxNCBDMTkuMTc4LDM0LjgwMiAxOC45MjQsMzQuOTA3IDE4LjY1OCwzNC45MDcgQzE4LjM5MywzNC45MDcgMTguMTM5LDM0LjgwMiAxNy45NTEsMzQuNjE0IEwxNS4wMDcsMzEuNjY5IEwxNi40MjEsMzAuMjU1IEwxOC42NTgsMzIuNDkzIEwyMy44NDIsMjcuMzEgTDI1LjI1NiwyOC43MjQgWiBNMjUuMjU2LDE3LjQ4NyBMMTkuMzY1LDIzLjM3NyBDMTkuMTc4LDIzLjU2NSAxOC45MjQsMjMuNjcgMTguNjU4LDIzLjY3IEMxOC4zOTMsMjMuNjcgMTguMTM5LDIzLjU2NSAxNy45NTEsMjMuMzc3IEwxNS4wMDcsMjAuNDMzIEwxNi40MjEsMTkuMDE5IEwxOC42NTgsMjEuMjU2IEwyMy44NDIsMTYuMDczIEwyNS4yNTYsMTcuNDg3IFogTTIzLjc4Myw0MS4zMjIgTDIxLjE3Nyw0My45MjggTDIzLjc4Myw0Ni41MzUgTDIyLjM2OSw0Ny45NDkgTDE5Ljc2Myw0NS4zNDMgTDE3LjE1Nyw0Ny45NDkgTDE1Ljc0Myw0Ni41MzUgTDE4LjM0OSw0My45MjggTDE1Ljc0Myw0MS4zMjIgTDE3LjE1NywzOS45MDggTDE5Ljc2Myw0Mi41MTQgTDIyLjM2OSwzOS45MDggTDIzLjc4Myw0MS4zMjIgWiBNMzYsMTMuNTQ4IEwzOS44NDcsMTcgTDM2LDE3IEwzNiwxMy41NDggWiBNMTIsMTIgTDM0LDEyIEwzNCwxOCBDMzQsMTguNTUyIDM0LjQ0NywxOSAzNSwxOSBMNDEsMTkgTDQxLDI1IEw0MywyNSBMNDMsMTcuNTg4IEM0MywxNy4zMDQgNDIuODc5LDE3LjAzNCA0Mi42NjgsMTYuODQ0IEwzNS4zMjYsMTAuMjU2IEMzNS4xNDMsMTAuMDkxIDM0LjkwNCwxMCAzNC42NTgsMTAgTDExLDEwIEMxMC40NDcsMTAgMTAsMTAuNDQ4IDEwLDExIEwxMCw1MyBDMTAsNTMuNTUyIDEwLjQ0Nyw1NCAxMSw1NCBMMzAsNTQgTDMwLDUyIEwxMiw1MiBMMTIsMTIgWiIgaWQ9IkZpbGwtMyIgZmlsbD0iI0ZGRkZGRiI+PC9wYXRoPgogICAgPC9nPgo8L3N2Zz4=;points=[[0,0],[1,0],[1,1],[0,1],[0,0.167],[0.167,0],[1,0.167],[0.167,1],[0,0.333],[0.333,0],[1,0.333],[0.333,1],[0,0.5],[0.5,0],[1,0.5],[0.5,1],[0,0.667],[0.667,0],[1,0.667],[0.667,1],[0,0.833],[0.833,0],[1,0.833],[0.833,1]]" vertex="1" parent="z1hSR8ZAEEp581dmZGRj-2">
                    <mxGeometry x="34.5" y="130.54" width="40" height="40" as="geometry"/>
                </mxCell>
                <mxCell id="8" value="" style="shape=image;verticalLabelPosition=bottom;verticalAlign=top;imageAspect=0;aspect=fixed;image=data:image/svg+xml,PD94bWwgdmVyc2lvbj0iMS4wIiBlbmNvZGluZz0iVVRGLTgiPz4KPHN2ZyB3aWR0aD0iNjRweCIgaGVpZ2h0PSI2NHB4IiB2aWV3Qm94PSIwIDAgNjQgNjQiIHZlcnNpb249IjEuMSIgeG1sbnM9Imh0dHA6Ly93d3cudzMub3JnLzIwMDAvc3ZnIiB4bWxuczp4bGluaz0iaHR0cDovL3d3dy53My5vcmcvMTk5OS94bGluayI+CiAgICA8dGl0bGU+SWNvbi1BcmNoaXRlY3R1cmUvNDgvQXJjaF9BbWF6b24tVmVyaWZpZWQtUGVybWlzc2lvbnNfNDg8L3RpdGxlPgogICAgPGcgaWQ9Ikljb24tQXJjaGl0ZWN0dXJlLzQ4L0FyY2hfQW1hem9uLVZlcmlmaWVkLVBlcm1pc3Npb25zXzQ4IiBzdHJva2U9Im5vbmUiIHN0cm9rZS13aWR0aD0iMSIgZmlsbD0ibm9uZSIgZmlsbC1ydWxlPSJldmVub2RkIj4KICAgICAgICA8ZyBpZD0iSWNvbi1BcmNoaXRlY3R1cmUtQkcvNDgvU2VjdXJpdHktSWRlbnRpdHktQ29tcGxpYW5jZSIgZmlsbD0iI0REMzQ0QyI+CiAgICAgICAgICAgIDxyZWN0IGlkPSJSZWN0YW5nbGUiIHg9IjAiIHk9IjAiIHdpZHRoPSI2NCIgaGVpZ2h0PSI2NCI+PC9yZWN0PgogICAgICAgIDwvZz4KICAgICAgICA8cGF0aCBkPSJNMzgsMzcgTDQ2LDM3IEw0NiwzOSBMMzgsMzkgTDM4LDQyIEw0Niw0MiBMNDYsNDQgTDM4LDQ0IEwzOCw0NyBMMzYsNDcgTDM2LDM0IEwzOCwzNCBMMzgsMzcgWiBNNTIsNDEuOTI2IEw1MC45ODIsNDEuODY4IEM1MC41MTMsNDEuODM3IDUwLjA1OCw0Mi4xNjggNDkuOTUsNDIuNjQ2IEM0OS43MDgsNDMuNzE5IDQ5LjI4OCw0NC43MzUgNDguNyw0NS42NjYgQzQ4LjQzOSw0Ni4wNzkgNDguNTE2LDQ2LjYyMSA0OC44OCw0Ni45NDYgTDQ5LjY0LDQ3LjYyNCBMNDcuNjI0LDQ5LjY0IEw0Ni45NDksNDguODg0IEM0Ni42MjMsNDguNTE3IDQ2LjA4MSw0OC40NDIgNDUuNjY5LDQ4LjcwNCBDNDQuNzM3LDQ5LjI5MiA0My43MjEsNDkuNzE0IDQyLjY0Niw0OS45NTcgQzQyLjE2OSw1MC4wNjQgNDEuODQsNTAuNTAxIDQxLjg2OCw1MC45ODkgTDQxLjkyNiw1MiBMMzkuMDc0LDUyIEwzOS4xMzIsNTAuOTg4IEMzOS4xNiw1MC41IDM4LjgzMSw1MC4wNjMgMzguMzU0LDQ5Ljk1NiBDMzcuMjgyLDQ5LjcxMyAzNi4yNjYsNDkuMjkyIDM1LjMzMyw0OC43MDIgQzM0LjkyLDQ4LjQ0MSAzNC4zNzgsNDguNTE1IDM0LjA1Myw0OC44ODIgTDMzLjM3Niw0OS42NCBMMzEuMzYsNDcuNjI0IEwzMi4xMTgsNDYuOTQ4IEMzMi40ODIsNDYuNjIzIDMyLjU1OSw0Ni4wODIgMzIuMjk4LDQ1LjY2OCBDMzEuNzEsNDQuNzM2IDMxLjI4OSw0My43MTkgMzEuMDQ4LDQyLjY0NiBDMzAuOTM5LDQyLjE2OSAzMC40NzYsNDEuODQ4IDMwLjAxNiw0MS44NjggTDI5LDQxLjkyNiBMMjksMzkuMDc0IEwzMC4wMiwzOS4xMzIgQzMwLjUsMzkuMTU0IDMwLjk0MiwzOC44MzIgMzEuMDUyLDM4LjM1NSBDMzEuMjk0LDM3LjI4NiAzMS43MTUsMzYuMjcxIDMyLjMwNSwzNS4zMzkgQzMyLjU2NSwzNC45MjUgMzIuNDg5LDM0LjM4NCAzMi4xMjUsMzQuMDU5IEwzMS4zNiwzMy4zNzYgTDMzLjM3NywzMS4zNiBMMzQuMDU4LDMyLjEyNCBDMzQuMzgyLDMyLjQ4OSAzNC45MjUsMzIuNTYzIDM1LjMzNywzMi4zMDQgQzM2LjI2NywzMS43MTcgMzcuMjgxLDMxLjI5NyAzOC4zNTQsMzEuMDU1IEMzOC44MzEsMzAuOTQ3IDM5LjE2LDMwLjUxMSAzOS4xMzIsMzAuMDIzIEwzOS4wNzQsMjkgTDQxLjkyNiwyOSBMNDEuODY4LDMwLjAyNCBDNDEuODQsMzAuNTEyIDQyLjE2OSwzMC45NDggNDIuNjQ2LDMxLjA1NiBDNDMuNzE1LDMxLjI5OCA0NC43MjksMzEuNzE5IDQ1LjY2MSwzMi4zMDYgQzQ2LjA3MSwzMi41NjUgNDYuNjE1LDMyLjQ5IDQ2Ljk0LDMyLjEyNiBMNDcuNjIzLDMxLjM2IEw0OS42NCwzMy4zNzYgTDQ4Ljg3NywzNC4wNTcgQzQ4LjUxMywzNC4zODIgNDguNDM3LDM0LjkyNCA0OC42OTgsMzUuMzM3IEM0OS4yODUsMzYuMjY2IDQ5LjcwNywzNy4yODEgNDkuOTQ5LDM4LjM1NCBDNTAuMDU3LDM4LjgzMiA1MC41MTMsMzkuMTU0IDUwLjk4MSwzOS4xMzIgTDUyLDM5LjA3NCBMNTIsNDEuOTI2IFogTTUzLjY4NywzNy4yODkgQzUzLjQ4NywzNy4xIDUzLjIxNSwzNyA1Mi45NDMsMzcuMDE3IEw1MS42ODIsMzcuMDg5IEM1MS40NjIsMzYuMzY3IDUxLjE3MywzNS42NzEgNTAuODE3LDM1LjAwNiBMNTEuNzYyLDM0LjE2NCBDNTEuOTY3LDMzLjk4MSA1Mi4wODgsMzMuNzIyIDUyLjA5NiwzMy40NDYgQzUyLjEwNCwzMy4xNzEgNTEuOTk3LDMyLjkwNSA1MS44MDMsMzIuNzExIEw0OC4yODksMjkuMTk4IEM0OC4wOTUsMjkuMDAzIDQ3LjgxOSwyOC44OTUgNDcuNTU0LDI4LjkwNSBDNDcuMjc4LDI4LjkxMyA0Ny4wMTksMjkuMDM0IDQ2LjgzNiwyOS4yMzkgTDQ1Ljk5MSwzMC4xODYgQzQ1LjMyNiwyOS44MzEgNDQuNjMsMjkuNTQzIDQzLjkxMSwyOS4zMjQgTDQzLjk4MiwyOC4wNTcgQzQzLjk5OCwyNy43ODIgNDMuOSwyNy41MTMgNDMuNzExLDI3LjMxMyBDNDMuNTIyLDI3LjExMyA0My4yNiwyNyA0Mi45ODQsMjcgTDM4LjAxNiwyNyBDMzcuNzQsMjcgMzcuNDc4LDI3LjExMyAzNy4yODksMjcuMzEzIEMzNy4xLDI3LjUxMyAzNy4wMDIsMjcuNzgyIDM3LjAxOCwyOC4wNTcgTDM3LjA4OSwyOS4zMjIgQzM2LjM2OCwyOS41NDIgMzUuNjcyLDI5LjgzIDM1LjAwNywzMC4xODQgTDM0LjE2NCwyOS4yMzkgQzMzLjk4MSwyOS4wMzQgMzMuNzIyLDI4LjkxMyAzMy40NDYsMjguOTA1IEMzMy4xNjksMjguODk3IDMyLjkwNiwyOS4wMDMgMzIuNzExLDI5LjE5OCBMMjkuMTk3LDMyLjcxMSBDMjkuMDAzLDMyLjkwNSAyOC44OTYsMzMuMTcxIDI4LjkwNCwzMy40NDYgQzI4LjkxMiwzMy43MjIgMjkuMDMzLDMzLjk4MSAyOS4yMzgsMzQuMTY0IEwzMC4xODUsMzUuMDA4IEMyOS44MjgsMzUuNjczIDI5LjUzOSwzNi4zNjkgMjkuMzE5LDM3LjA4OSBMMjguMDU3LDM3LjAxNyBDMjcuNzg0LDM3IDI3LjUxMywzNy4xIDI3LjMxMywzNy4yODkgQzI3LjExMywzNy40NzggMjcsMzcuNzQxIDI3LDM4LjAxNiBMMjcsNDIuOTg0IEMyNyw0My4yNTkgMjcuMTEzLDQzLjUyMiAyNy4zMTMsNDMuNzExIEMyNy41MTMsNDMuOSAyNy43ODUsNDMuOTk1IDI4LjA1Nyw0My45ODMgTDI5LjMxNCw0My45MTEgQzI5LjUzMyw0NC42MzMgMjkuODIyLDQ1LjMzMSAzMC4xNzgsNDUuOTk4IEwyOS4yMzgsNDYuODM2IEMyOS4wMzMsNDcuMDIgMjguOTEyLDQ3LjI3OSAyOC45MDQsNDcuNTU0IEMyOC44OTYsNDcuODI5IDI5LjAwMyw0OC4wOTUgMjkuMTk3LDQ4LjI5IEwzMi43MTEsNTEuODAzIEMzMi45MDYsNTEuOTk4IDMzLjE2Niw1Mi4xMSAzMy40NDYsNTIuMDk1IEMzMy43MjIsNTIuMDg3IDMzLjk4MSw1MS45NjcgMzQuMTY0LDUxLjc2MSBMMzUuMDAyLDUwLjgyMiBDMzUuNjY5LDUxLjE3OSAzNi4zNjcsNTEuNDY4IDM3LjA4OSw1MS42ODggTDM3LjAxOCw1Mi45NDMgQzM3LjAwMiw1My4yMTggMzcuMSw1My40ODcgMzcuMjg5LDUzLjY4NyBDMzcuNDc4LDUzLjg4NyAzNy43NCw1NCAzOC4wMTYsNTQgTDQyLjk4NCw1NCBDNDMuMjYsNTQgNDMuNTIyLDUzLjg4NyA0My43MTEsNTMuNjg3IEM0My45LDUzLjQ4NyA0My45OTgsNTMuMjE4IDQzLjk4Miw1Mi45NDMgTDQzLjkxMSw1MS42ODkgQzQ0LjYzNSw1MS40NyA0NS4zMzMsNTEuMTggNDYsNTAuODI0IEw0Ni44MzYsNTEuNzYxIEM0Ny4wMTksNTEuOTY3IDQ3LjI3OCw1Mi4wODcgNDcuNTU0LDUyLjA5NSBDNDcuODIyLDUyLjExMyA0OC4wOTUsNTEuOTk4IDQ4LjI4OSw1MS44MDMgTDUxLjgwMyw0OC4yOSBDNTEuOTk3LDQ4LjA5NSA1Mi4xMDQsNDcuODI5IDUyLjA5Niw0Ny41NTQgQzUyLjA4OCw0Ny4yNzkgNTEuOTY3LDQ3LjAyIDUxLjc2Miw0Ni44MzYgTDUwLjgyLDQ1Ljk5NyBDNTEuMTc2LDQ1LjMzMSA1MS40NjQsNDQuNjMzIDUxLjY4NCw0My45MTEgTDUyLjk0Myw0My45ODMgQzUzLjIxNCw0My45OTQgNTMuNDg3LDQzLjkgNTMuNjg3LDQzLjcxMSBDNTMuODg3LDQzLjUyMiA1NCw0My4yNTkgNTQsNDIuOTg0IEw1NCwzOC4wMTYgQzU0LDM3Ljc0MSA1My44ODcsMzcuNDc4IDUzLjY4NywzNy4yODkgTDUzLjY4NywzNy4yODkgWiBNMjUuMjU2LDI4LjcyNCBMMTkuMzY1LDM0LjYxNCBDMTkuMTc4LDM0LjgwMiAxOC45MjQsMzQuOTA3IDE4LjY1OCwzNC45MDcgQzE4LjM5MywzNC45MDcgMTguMTM5LDM0LjgwMiAxNy45NTEsMzQuNjE0IEwxNS4wMDcsMzEuNjY5IEwxNi40MjEsMzAuMjU1IEwxOC42NTgsMzIuNDkzIEwyMy44NDIsMjcuMzEgTDI1LjI1NiwyOC43MjQgWiBNMjUuMjU2LDE3LjQ4NyBMMTkuMzY1LDIzLjM3NyBDMTkuMTc4LDIzLjU2NSAxOC45MjQsMjMuNjcgMTguNjU4LDIzLjY3IEMxOC4zOTMsMjMuNjcgMTguMTM5LDIzLjU2NSAxNy45NTEsMjMuMzc3IEwxNS4wMDcsMjAuNDMzIEwxNi40MjEsMTkuMDE5IEwxOC42NTgsMjEuMjU2IEwyMy44NDIsMTYuMDczIEwyNS4yNTYsMTcuNDg3IFogTTIzLjc4Myw0MS4zMjIgTDIxLjE3Nyw0My45MjggTDIzLjc4Myw0Ni41MzUgTDIyLjM2OSw0Ny45NDkgTDE5Ljc2Myw0NS4zNDMgTDE3LjE1Nyw0Ny45NDkgTDE1Ljc0Myw0Ni41MzUgTDE4LjM0OSw0My45MjggTDE1Ljc0Myw0MS4zMjIgTDE3LjE1NywzOS45MDggTDE5Ljc2Myw0Mi41MTQgTDIyLjM2OSwzOS45MDggTDIzLjc4Myw0MS4zMjIgWiBNMzYsMTMuNTQ4IEwzOS44NDcsMTcgTDM2LDE3IEwzNiwxMy41NDggWiBNMTIsMTIgTDM0LDEyIEwzNCwxOCBDMzQsMTguNTUyIDM0LjQ0NywxOSAzNSwxOSBMNDEsMTkgTDQxLDI1IEw0MywyNSBMNDMsMTcuNTg4IEM0MywxNy4zMDQgNDIuODc5LDE3LjAzNCA0Mi42NjgsMTYuODQ0IEwzNS4zMjYsMTAuMjU2IEMzNS4xNDMsMTAuMDkxIDM0LjkwNCwxMCAzNC42NTgsMTAgTDExLDEwIEMxMC40NDcsMTAgMTAsMTAuNDQ4IDEwLDExIEwxMCw1MyBDMTAsNTMuNTUyIDEwLjQ0Nyw1NCAxMSw1NCBMMzAsNTQgTDMwLDUyIEwxMiw1MiBMMTIsMTIgWiIgaWQ9IkZpbGwtMyIgZmlsbD0iI0ZGRkZGRiI+PC9wYXRoPgogICAgPC9nPgo8L3N2Zz4=;points=[[0,0],[1,0],[1,1],[0,1],[0,0.167],[0.167,0],[1,0.167],[0.167,1],[0,0.333],[0.333,0],[1,0.333],[0.333,1],[0,0.5],[0.5,0],[1,0.5],[0.5,1],[0,0.667],[0.667,0],[1,0.667],[0.667,1],[0,0.833],[0.833,0],[1,0.833],[0.833,1]]" vertex="1" parent="z1hSR8ZAEEp581dmZGRj-2">
                    <mxGeometry x="328.95" y="60.540000000000006" width="29.46" height="29.46" as="geometry"/>
                </mxCell>
                <mxCell id="z1hSR8ZAEEp581dmZGRj-3" value="AWS Account - PROD" style="points=[[0,0],[0.25,0],[0.5,0],[0.75,0],[1,0],[1,0.25],[1,0.5],[1,0.75],[1,1],[0.75,1],[0.5,1],[0.25,1],[0,1],[0,0.75],[0,0.5],[0,0.25]];outlineConnect=0;gradientColor=none;html=1;whiteSpace=wrap;fontSize=12;fontStyle=0;container=1;pointerEvents=0;collapsible=0;recursiveResize=0;shape=mxgraph.aws4.group;grIcon=mxgraph.aws4.group_account;strokeColor=#CD2264;fillColor=none;verticalAlign=top;align=left;spacingLeft=30;fontColor=#CD2264;dashed=0;" parent="z1hSR8ZAEEp581dmZGRj-1" vertex="1">
                    <mxGeometry x="18" y="325" width="227" height="170" as="geometry"/>
                </mxCell>
                <mxCell id="Wi8k5kGcbuwrF1H-IDLo-2" value="AWS Admin Role" style="sketch=0;outlineConnect=0;fontColor=#232F3E;gradientColor=none;fillColor=#BF0816;strokeColor=none;dashed=0;verticalLabelPosition=bottom;verticalAlign=top;align=center;html=1;fontSize=12;fontStyle=0;aspect=fixed;pointerEvents=1;shape=mxgraph.aws4.role;" parent="z1hSR8ZAEEp581dmZGRj-3" vertex="1">
                    <mxGeometry x="62" y="63" width="78" height="44" as="geometry"/>
                </mxCell>
                <mxCell id="z1hSR8ZAEEp581dmZGRj-6" value="AWS Account - DEV" style="points=[[0,0],[0.25,0],[0.5,0],[0.75,0],[1,0],[1,0.25],[1,0.5],[1,0.75],[1,1],[0.75,1],[0.5,1],[0.25,1],[0,1],[0,0.75],[0,0.5],[0,0.25]];outlineConnect=0;gradientColor=none;html=1;whiteSpace=wrap;fontSize=12;fontStyle=0;container=1;pointerEvents=0;collapsible=0;recursiveResize=0;shape=mxgraph.aws4.group;grIcon=mxgraph.aws4.group_account;strokeColor=#CD2264;fillColor=none;verticalAlign=top;align=left;spacingLeft=30;fontColor=#CD2264;dashed=0;opacity=40;" parent="z1hSR8ZAEEp581dmZGRj-1" vertex="1">
                    <mxGeometry x="485" y="325" width="227" height="170" as="geometry"/>
                </mxCell>
                <mxCell id="Wi8k5kGcbuwrF1H-IDLo-3" value="AWS Admin Role" style="sketch=0;outlineConnect=0;fontColor=#232F3E;gradientColor=none;fillColor=#BF0816;strokeColor=none;dashed=0;verticalLabelPosition=bottom;verticalAlign=top;align=center;html=1;fontSize=12;fontStyle=0;aspect=fixed;pointerEvents=1;shape=mxgraph.aws4.role;opacity=40;" parent="z1hSR8ZAEEp581dmZGRj-6" vertex="1">
                    <mxGeometry x="74.5" y="63" width="78" height="44" as="geometry"/>
                </mxCell>
                <mxCell id="Wi8k5kGcbuwrF1H-IDLo-8" style="rounded=0;orthogonalLoop=1;jettySize=auto;html=1;exitX=0;exitY=1;exitDx=0;exitDy=0;" parent="z1hSR8ZAEEp581dmZGRj-1" source="Wi8k5kGcbuwrF1H-IDLo-6" target="Wi8k5kGcbuwrF1H-IDLo-2" edge="1">
                    <mxGeometry relative="1" as="geometry"/>
                </mxCell>
                <mxCell id="Wi8k5kGcbuwrF1H-IDLo-9" style="rounded=0;orthogonalLoop=1;jettySize=auto;html=1;exitX=1;exitY=1;exitDx=0;exitDy=0;opacity=40;dashed=1;" parent="z1hSR8ZAEEp581dmZGRj-1" source="Wi8k5kGcbuwrF1H-IDLo-6" target="Wi8k5kGcbuwrF1H-IDLo-3" edge="1">
                    <mxGeometry relative="1" as="geometry"/>
                </mxCell>
                <mxCell id="Wi8k5kGcbuwrF1H-IDLo-11" style="edgeStyle=orthogonalEdgeStyle;rounded=0;orthogonalLoop=1;jettySize=auto;html=1;" parent="1" edge="1">
                    <mxGeometry relative="1" as="geometry">
                        <mxPoint x="425" y="130" as="sourcePoint"/>
                        <mxPoint x="425" y="250" as="targetPoint"/>
                        <Array as="points">
                            <mxPoint x="425" y="110"/>
                            <mxPoint x="425" y="110"/>
                        </Array>
                    </mxGeometry>
                </mxCell>
                <mxCell id="z1hSR8ZAEEp581dmZGRj-5" value="Internet" style="outlineConnect=0;dashed=0;verticalLabelPosition=bottom;verticalAlign=top;align=center;html=1;shape=mxgraph.aws3.internet;fillColor=#D2D3D3;gradientColor=none;" parent="1" vertex="1">
                    <mxGeometry x="380" width="79.5" height="79.5" as="geometry"/>
                </mxCell>
                <mxCell id="6" style="edgeStyle=none;html=1;" parent="1" source="5" target="z1hSR8ZAEEp581dmZGRj-5" edge="1">
                    <mxGeometry relative="1" as="geometry"/>
                </mxCell>
                <mxCell id="5" value="" style="verticalLabelPosition=bottom;html=1;verticalAlign=top;align=center;strokeColor=none;fillColor=#00BEF2;shape=mxgraph.azure.laptop;pointerEvents=1;" parent="1" vertex="1">
                    <mxGeometry x="230" y="25" width="50" height="30" as="geometry"/>
                </mxCell>
            </root>
        </mxGraphModel>
    </diagram>
</mxfile>
